<svg width="18" height="19" viewBox="0 0 18 19" fill="none" xmlns="http://www.w3.org/2000/svg">
<path d="M3.00094 2.09004C2.44094 2.09004 1.96094 2.29004 1.56094 2.69004C1.16094 3.09004 0.960938 3.58004 0.960938 4.16004C0.960938 4.74004 1.16094 5.23004 1.56094 5.63004C1.96094 6.03004 2.44094 6.23004 3.00094 6.23004C3.56094 6.23004 4.04094 6.03004 4.44094 5.63004C4.84094 5.23004 5.04094 4.74004 5.04094 4.16004C5.04094 3.58004 4.84094 3.09004 4.44094 2.69004C4.04094 2.29004 3.56094 2.09004 3.00094 2.09004ZM3.00094 3.23004C3.24094 3.23004 3.46094 3.32004 3.66094 3.50004C3.86094 3.68004 3.96094 3.90004 3.96094 4.16004C3.96094 4.42004 3.86094 4.64004 3.66094 4.82004C3.46094 5.00004 3.24094 5.09004 3.00094 5.09004C2.76094 5.09004 2.54094 5.00004 2.34094 4.82004C2.14094 4.64004 2.04094 4.42004 2.04094 4.16004C2.04094 3.90004 2.14094 3.68004 2.34094 3.50004C2.54094 3.32004 2.76094 3.23004 3.00094 3.23004ZM3.00094 12.59C2.44094 12.59 1.96094 12.79 1.56094 13.19C1.16094 13.59 0.960938 14.08 0.960938 14.66C0.960938 15.24 1.16094 15.73 1.56094 16.13C1.96094 16.53 2.44094 16.73 3.00094 16.73C3.56094 16.73 4.04094 16.53 4.44094 16.13C4.84094 15.73 5.04094 15.24 5.04094 14.66C5.04094 14.08 4.84094 13.59 4.44094 13.19C4.04094 12.79 3.56094 12.59 3.00094 12.59ZM3.00094 13.73C3.24094 13.73 3.46094 13.82 3.66094 14C3.86094 14.18 3.96094 14.4 3.96094 14.66C3.96094 14.92 3.86094 15.14 3.66094 15.32C3.46094 15.5 3.24094 15.59 3.00094 15.59C2.76094 15.59 2.54094 15.5 2.34094 15.32C2.14094 15.14 2.04094 14.92 2.04094 14.66C2.04094 14.4 2.14094 14.18 2.34094 14C2.54094 13.82 2.76094 13.73 3.00094 13.73ZM9.00094 2.09004C8.44094 2.09004 7.96094 2.29004 7.56094 2.69004C7.16094 3.09004 6.96094 3.58004 6.96094 4.16004C6.96094 4.74004 7.16094 5.23004 7.56094 5.63004C7.96094 6.03004 8.44094 6.23004 9.00094 6.23004C9.56094 6.23004 10.0409 6.03004 10.4409 5.63004C10.8409 5.23004 11.0409 4.74004 11.0409 4.16004C11.0409 3.58004 10.8409 3.09004 10.4409 2.69004C10.0409 2.29004 9.56094 2.09004 9.00094 2.09004ZM9.00094 3.23004C9.24094 3.23004 9.46094 3.32004 9.66094 3.50004C9.86094 3.68004 9.96094 3.90004 9.96094 4.16004C9.96094 4.42004 9.86094 4.64004 9.66094 4.82004C9.46094 5.00004 9.24094 5.09004 9.00094 5.09004C8.76094 5.09004 8.54094 5.00004 8.34094 4.82004C8.14094 4.64004 8.04094 4.42004 8.04094 4.16004C8.04094 3.90004 8.14094 3.68004 8.34094 3.50004C8.54094 3.32004 8.76094 3.23004 9.00094 3.23004ZM9.00094 12.59C8.44094 12.59 7.96094 12.79 7.56094 13.19C7.16094 13.59 6.96094 14.08 6.96094 14.66C6.96094 15.24 7.16094 15.73 7.56094 16.13C7.96094 16.53 8.44094 16.73 9.00094 16.73C9.56094 16.73 10.0409 16.53 10.4409 16.13C10.8409 15.73 11.0409 15.24 11.0409 14.66C11.0409 14.08 10.8409 13.59 10.4409 13.19C10.0409 12.79 9.56094 12.59 9.00094 12.59ZM9.00094 13.73C9.24094 13.73 9.46094 13.82 9.66094 14C9.86094 14.18 9.96094 14.4 9.96094 14.66C9.96094 14.92 9.86094 15.14 9.66094 15.32C9.46094 15.5 9.24094 15.59 9.00094 15.59C8.76094 15.59 8.54094 15.5 8.34094 15.32C8.14094 15.14 8.04094 14.92 8.04094 14.66C8.04094 14.4 8.14094 14.18 8.34094 14C8.54094 13.82 8.76094 13.73 9.00094 13.73ZM15.0009 2.09004C14.4409 2.09004 13.9609 2.29004 13.5609 2.69004C13.1609 3.09004 12.9609 3.58004 12.9609 4.16004C12.9609 4.74004 13.1609 5.23004 13.5609 5.63004C13.9609 6.03004 14.4409 6.23004 15.0009 6.23004C15.5609 6.23004 16.0409 6.03004 16.4409 5.63004C16.8409 5.23004 17.0409 4.74004 17.0409 4.16004C17.0409 3.58004 16.8409 3.09004 16.4409 2.69004C16.0409 2.29004 15.5609 2.09004 15.0009 2.09004ZM15.0009 3.23004C15.2409 3.23004 15.4609 3.32004 15.6609 3.50004C15.8609 3.68004 15.9609 3.90004 15.9609 4.16004C15.9609 4.42004 15.8609 4.64004 15.6609 4.82004C15.4609 5.00004 15.2409 5.09004 15.0009 5.09004C14.7609 5.09004 14.5409 5.00004 14.3409 4.82004C14.1409 4.64004 14.0409 4.42004 14.0409 4.16004C14.0409 3.90004 14.1409 3.68004 14.3409 3.50004C14.5409 3.32004 14.7609 3.23004 15.0009 3.23004ZM15.0009 12.59C14.4409 12.59 13.9609 12.79 13.5609 13.19C13.1609 13.59 12.9609 14.08 12.9609 14.66C12.9609 15.24 13.1609 15.73 13.5609 16.13C13.9609 16.53 14.4409 16.73 15.0009 16.73C15.5609 16.73 16.0409 16.53 16.4409 16.13C16.8409 15.73 17.0409 15.24 17.0409 14.66C17.0409 14.08 16.8409 13.59 16.4409 13.19C16.0409 12.79 15.5609 12.59 15.0009 12.59ZM15.0009 13.73C15.2409 13.73 15.4609 13.82 15.6609 14C15.8609 14.18 15.9609 14.4 15.9609 14.66C15.9609 14.92 15.8609 15.14 15.6609 15.32C15.4609 15.5 15.2409 15.59 15.0009 15.59C14.7609 15.59 14.5409 15.5 14.3409 15.32C14.1409 15.14 14.0409 14.92 14.0409 14.66C14.0409 14.4 14.1409 14.18 14.3409 14C14.5409 13.82 14.7609 13.73 15.0009 13.73ZM2.46094 5.63004V13.13C2.46094 13.29 2.51094 13.43 2.61094 13.55C2.71094 13.67 2.84094 13.73 3.00094 13.73C3.16094 13.73 3.29094 13.67 3.39094 13.55C3.49094 13.43 3.54094 13.31 3.54094 13.19V5.63004C3.54094 5.51004 3.49094 5.39004 3.39094 5.27004C3.29094 5.15004 3.16094 5.09004 3.00094 5.09004C2.84094 5.09004 2.71094 5.15004 2.61094 5.27004C2.51094 5.39004 2.46094 5.51004 2.46094 5.63004ZM8.46094 5.63004V13.13C8.46094 13.29 8.51094 13.43 8.61094 13.55C8.71094 13.67 8.84094 13.73 9.00094 13.73C9.16094 13.73 9.29094 13.67 9.39094 13.55C9.49094 13.43 9.54094 13.31 9.54094 13.19V5.63004C9.54094 5.51004 9.49094 5.39004 9.39094 5.27004C9.29094 5.15004 9.16094 5.09004 9.00094 5.09004C8.84094 5.09004 8.71094 5.15004 8.61094 5.27004C8.51094 5.39004 8.46094 5.51004 8.46094 5.63004ZM14.4609 5.63004V8.63004C14.4609 8.71004 14.4409 8.77004 14.4009 8.81004C14.3609 8.85004 14.3209 8.87004 14.2809 8.87004H3.00094C2.84094 8.87004 2.71094 8.92004 2.61094 9.02004C2.51094 9.12004 2.46094 9.25004 2.46094 9.41004C2.46094 9.57004 2.51094 9.70004 2.61094 9.80004C2.71094 9.90004 2.84094 9.95004 3.00094 9.95004H14.2809C14.6409 9.95004 14.9409 9.83004 15.1809 9.59004C15.4209 9.35004 15.5409 9.03004 15.5409 8.63004V5.69004C15.5409 5.53004 15.4909 5.39004 15.3909 5.27004C15.2909 5.15004 15.1609 5.09004 15.0009 5.09004C14.8409 5.09004 14.7109 5.15004 14.6109 5.27004C14.5109 5.39004 14.4609 5.51004 14.4609 5.63004Z" fill="#999"/>
</svg>
