<svg width="18" height="19" viewBox="0 0 18 19" fill="none" xmlns="http://www.w3.org/2000/svg">
<g clip-path="url(#clip0_5_6315)">
<path d="M18 11.03C18 13.07 17.4 14.89 16.2 16.49C16.08 16.65 15.92 16.74 15.72 16.76C15.52 16.78 15.34 16.73 15.18 16.61C15.02 16.49 14.93 16.34 14.91 16.16C14.89 15.98 14.94 15.81 15.06 15.65C16.1 14.29 16.62 12.75 16.62 11.03C16.62 9.67 16.28 8.41 15.6 7.25C14.92 6.09 13.99 5.17 12.81 4.49C11.63 3.81 10.36 3.47 9 3.47C7.64 3.47 6.37 3.81 5.19 4.49C4.01 5.17 3.08 6.09 2.4 7.25C1.72 8.41 1.38 9.67 1.38 11.03C1.38 12.75 1.9 14.29 2.94 15.65C3.06 15.81 3.11 15.98 3.09 16.16C3.07 16.34 2.98 16.49 2.82 16.61C2.66 16.73 2.48 16.78 2.28 16.76C2.08 16.74 1.92 16.65 1.8 16.49C0.6 14.89 0 13.07 0 11.03C0 9.43 0.4 7.94 1.2 6.56C2 5.18 3.09 4.09 4.47 3.29C5.85 2.49 7.36 2.09 9 2.09C10.64 2.09 12.15 2.49 13.53 3.29C14.91 4.09 16 5.18 16.8 6.56C17.6 7.94 18 9.43 18 11.03ZM13.44 6.83C13.6 6.95 13.68 7.11 13.68 7.31C13.68 7.51 13.6 7.67 13.44 7.79L11.16 10.13C11.36 10.49 11.46 10.87 11.46 11.27C11.46 11.95 11.22 12.53 10.74 13.01C10.26 13.49 9.68 13.73 9 13.73C8.32 13.73 7.74 13.49 7.26 13.01C6.78 12.53 6.54 11.95 6.54 11.27C6.54 10.59 6.78 10.01 7.26 9.53C7.74 9.05 8.32 8.81 9 8.81C9.4 8.81 9.78 8.91 10.14 9.11L12.48 6.83C12.6 6.67 12.76 6.59 12.96 6.59C13.16 6.59 13.32 6.67 13.44 6.83ZM10.08 11.27C10.08 10.99 9.97 10.75 9.75 10.55C9.53 10.35 9.28 10.25 9 10.25C8.72 10.25 8.47 10.35 8.25 10.55C8.03 10.75 7.92 10.99 7.92 11.27C7.92 11.55 8.03 11.8 8.25 12.02C8.47 12.24 8.72 12.35 9 12.35C9.28 12.35 9.53 12.24 9.75 12.02C9.97 11.8 10.08 11.55 10.08 11.27Z" fill="#999"/>
</g>
<defs>
<clipPath id="clip0_5_6315">
<rect width="18" height="18" fill="white" transform="matrix(1 0 0 -1 0 18.41)"/>
</clipPath>
</defs>
</svg>
