<svg width="19" height="19" viewBox="0 0 19 19" fill="none" xmlns="http://www.w3.org/2000/svg">
<g clip-path="url(#clip0_5_6318)">
<path d="M11.4291 3.76997C11.4291 3.60997 11.3791 3.47997 11.2791 3.37997C11.1791 3.27997 11.0491 3.22997 10.8891 3.22997H5.24906C5.08906 3.22997 4.95906 3.27997 4.85906 3.37997C4.75906 3.47997 4.70906 3.60997 4.70906 3.76997V8.26997C4.70906 8.42997 4.75906 8.56997 4.85906 8.68997C4.95906 8.80997 5.08906 8.86997 5.24906 8.86997H10.8891C11.0491 8.86997 11.1791 8.80997 11.2791 8.68997C11.3791 8.56997 11.4291 8.42997 11.4291 8.26997V3.76997ZM10.2891 7.72997H5.78906V4.36997H10.2891V7.72997ZM17.9091 4.36997L15.6291 3.28997C15.5091 3.20997 15.3691 3.18997 15.2091 3.22997C15.0491 3.26997 14.9391 3.35997 14.8791 3.49997C14.8191 3.63997 14.8091 3.78997 14.8491 3.94997C14.8891 4.10997 14.9891 4.20997 15.1491 4.24997L15.9891 4.72997L15.9291 4.90997C15.9291 5.26997 16.0391 5.58997 16.2591 5.86997C16.4791 6.14997 16.7491 6.34997 17.0691 6.46997V13.31C17.0691 13.47 17.0091 13.61 16.8891 13.73C16.7691 13.85 16.6391 13.91 16.4991 13.91C16.3591 13.91 16.2291 13.85 16.1091 13.73C15.9891 13.61 15.9291 13.47 15.9291 13.31V8.80997C15.9291 8.16997 15.6991 7.58997 15.2391 7.06997C14.7791 6.54997 14.2691 6.22997 13.7091 6.10997V2.62997C13.7091 2.02997 13.4891 1.50997 13.0491 1.06997C12.6091 0.629974 12.0891 0.409973 11.4891 0.409973H4.70906C4.10906 0.409973 3.57906 0.629974 3.11906 1.06997C2.65906 1.50997 2.42906 2.02997 2.42906 2.62997V15.23L1.64906 15.65C1.40906 15.77 1.28906 15.93 1.28906 16.13V17.81C1.28906 17.97 1.34906 18.11 1.46906 18.23C1.58906 18.35 1.72906 18.41 1.88906 18.41H14.2491C14.4091 18.41 14.5391 18.35 14.6391 18.23C14.7391 18.11 14.7891 17.97 14.7891 17.81V16.13C14.7891 15.93 14.6891 15.77 14.4891 15.65L13.7091 15.23V7.24997C13.9891 7.36997 14.2391 7.57997 14.4591 7.87997C14.6791 8.17997 14.7891 8.48997 14.7891 8.80997V13.31C14.7891 13.79 14.9591 14.2 15.2991 14.54C15.6391 14.88 16.0391 15.05 16.4991 15.05C16.9591 15.05 17.3591 14.88 17.6991 14.54C18.0391 14.2 18.2091 13.79 18.2091 13.31V4.90997C18.2091 4.66997 18.1091 4.48997 17.9091 4.36997ZM13.7091 17.27H2.42906V16.49L3.26906 16.07C3.46906 15.99 3.56906 15.83 3.56906 15.59V2.62997C3.56906 2.34997 3.67906 2.09997 3.89906 1.87997C4.11906 1.65997 4.38906 1.54997 4.70906 1.54997H11.4891C11.7691 1.54997 12.0191 1.65997 12.2391 1.87997C12.4591 2.09997 12.5691 2.34997 12.5691 2.62997V15.59C12.5691 15.83 12.6691 15.99 12.8691 16.07L13.7091 16.49V17.27Z" fill="#999"/>
</g>
<defs>
<clipPath id="clip0_5_6318">
<rect width="18" height="18" fill="white" transform="matrix(1 0 0 -1 0.75 18.41)"/>
</clipPath>
</defs>
</svg>
