<svg width="32" height="16" viewBox="0 0 32 16" fill="none" xmlns="http://www.w3.org/2000/svg">
<g clip-path="url(#clip0_0_639)">
<path d="M3.21548 3.11968C3.35836 2.7985 3.48108 2.53765 4.38011 2.53765H9.57002C9.8562 2.53765 10.142 2.39711 10.142 1.99603V0.571822C10.142 0.410347 10.3057 0.189387 10.7347 0.189387H21.4824C21.7888 0.189387 22.0343 0.350133 22.0343 0.731421V1.85549C22.0343 2.15636 22.1772 2.47743 22.6267 2.47743H31.2493C31.5556 2.47743 31.9643 2.55744 31.7806 2.93914C31.5965 3.32001 28.7974 8.89745 28.6076 9.27009C28.5347 9.41292 28.4779 9.60336 27.9112 9.60336H22.6108C22.3595 9.60336 21.9467 9.60336 21.9467 10.0806V11.408C21.9467 11.5989 21.8013 11.8853 21.3398 11.8853H10.7057C10.3737 11.8853 10.131 11.7177 10.131 11.3921V10.2234C10.131 9.96902 9.99324 9.59575 9.60492 9.59575H0.678437C0.394917 9.59575 0.127944 9.38094 0.297971 8.96798C0.467998 8.55429 3.21548 3.11968 3.21548 3.11968Z" fill="#C7D6EE"/>
<path d="M0.980286 8.34749L1.22838 8.34822L3.66731 3.58212L3.41911 3.58139L0.980286 8.34749Z" fill="url(#paint0_linear_0_639)"/>
<path d="M9.62602 9.02055H1.2774C0.986136 9.02055 0.883992 8.88991 0.997379 8.6675C1.62955 7.43258 3.70837 3.37144 3.76226 3.26362C3.82547 3.13683 3.97853 2.98182 4.2612 2.98182H9.86351C10.4447 2.98182 10.5437 2.73231 10.5437 2.28164V0.939425C10.5437 0.758885 10.6656 0.638873 10.8801 0.638873H21.141C21.4166 0.638873 21.5386 0.728361 21.5386 0.9089V1.90046C21.5386 2.29123 21.4634 2.92192 22.3502 2.92192H30.8289C31.2097 2.92192 31.3086 3.17413 31.107 3.57334C30.3567 5.05994 28.5104 8.58478 28.453 8.70437C28.3802 8.85637 28.1544 8.99013 27.7937 8.99013H22.2282C21.769 8.99013 21.3105 9.29058 21.3105 9.74156V10.887C21.3105 11.0957 21.1829 11.2435 20.956 11.2435H10.9997C10.6917 11.2435 10.5742 11.0721 10.5742 10.8435V9.80146C10.5742 9.44112 10.3295 9.02055 9.62602 9.02055Z" fill="#E9CF98"/>
<path d="M20.7596 8.75166L21.929 9.94876C21.929 9.94876 22.0124 9.68634 22.3295 9.62123L21.0199 8.42142C21.0199 8.42142 20.8096 8.53831 20.7596 8.75166Z" fill="white"/>
<path d="M9.65317 9.60445C9.65317 9.60445 10.1209 9.62122 10.1209 10.228L11.2064 8.653L10.9058 8.43965L9.65317 9.60445Z" fill="white"/>
<path d="M21.1912 3.64073L22.4242 2.4603C22.4242 2.4603 22.257 2.44019 22.0896 2.17319L20.8669 3.39467L21.1912 3.64073Z" fill="white"/>
<path d="M20.6579 1.22889L21.7971 0.274734C21.7971 0.274734 21.9226 0.346303 21.9748 0.45944L20.7834 1.53705L20.6579 1.22889Z" fill="white"/>
<path d="M10.1501 0.6202C10.1501 0.422576 10.337 0.189428 10.643 0.189428L11.5073 1.2388C11.5073 1.2388 11.2486 1.2388 11.208 1.33246C11.1668 1.42622 11.1261 1.62697 11.1261 1.62697L10.1501 0.6202Z" fill="white"/>
<path d="M9.7771 2.51026C9.7771 2.51026 10.1464 2.45275 10.1464 2.065L11.0031 3.055L10.4571 3.44264L9.7771 2.51026Z" fill="white"/>
<path d="M16.1119 0.189378L16.0725 0.640778H21.0092C21.1712 0.640778 21.2623 0.680781 21.3234 0.800064L21.8701 0.322724C21.8701 0.322724 21.7327 0.189378 21.4825 0.189378H16.1119Z" fill="url(#paint1_linear_0_639)"/>
<path d="M10.643 0.189384C10.5114 0.189384 10.3594 0.253349 10.2787 0.352421L10.633 0.73027C10.633 0.73027 10.7038 0.640784 10.9873 0.640784H16.0725L16.1119 0.189384H10.643Z" fill="url(#paint2_linear_0_639)"/>
<path d="M10.1502 0.620264V1.99603C10.1502 2.21199 10.1062 2.26491 10.1062 2.26491L10.497 2.67287C10.497 2.67287 10.5529 2.53202 10.5529 2.44545V1.08229C10.5529 0.996239 10.5608 0.87081 10.5608 0.87081L10.1938 0.42441C10.1938 0.42441 10.1502 0.502439 10.1502 0.620264Z" fill="url(#paint3_linear_0_639)"/>
<path d="M21.5466 0.828924C21.5466 0.828924 21.536 0.98894 21.536 1.07499C21.536 1.16104 21.5466 2.32314 21.5466 2.40939C21.5466 2.49544 21.6742 2.65504 21.6742 2.65504L22.1419 2.24854C22.1419 2.24854 22.031 2.21198 22.031 1.99602V0.620255C22.031 0.50243 21.9329 0.424401 21.9329 0.424401L21.5466 0.828924Z" fill="url(#paint4_linear_0_639)"/>
<path d="M9.5996 2.53921C9.45301 2.53921 4.41679 2.54494 4.14844 2.54494C3.75906 2.54494 3.53006 2.7136 3.53006 2.7136L3.85038 3.13687C3.85038 3.13687 3.97852 2.98175 4.26129 2.98175H9.94411C10.142 2.98175 10.2907 2.89383 10.2907 2.89383L9.91939 2.45576C9.91939 2.45576 9.73706 2.53921 9.5996 2.53921Z" fill="url(#paint5_linear_0_639)"/>
<path d="M0.829771 8.70442L0.249049 9.10435C0.249049 9.10435 0.203014 9.26968 0.289778 9.40032C0.376753 9.53054 0.509551 9.55075 0.509551 9.55075L1.26539 9.02049C1.26539 9.02049 0.83762 9.0007 1.0156 8.68952C1.19358 8.37834 1.18393 8.26104 1.18393 8.26104C1.18393 8.26104 0.976251 8.29458 0.829771 8.70442Z" fill="url(#paint6_linear_0_639)"/>
<path d="M2.4244 4.78765C1.96131 5.72379 0.405927 8.73107 0.351514 8.83847C0.296995 8.94546 0.242371 9.13257 0.242371 9.13257L0.841762 8.7044L3.65034 3.20884C3.65034 3.20884 2.8876 3.85099 2.4244 4.78765Z" fill="url(#paint7_linear_0_639)"/>
<path d="M1.27739 9.0335L0.507019 9.57782C0.507019 9.57782 9.28204 9.59907 9.50372 9.59907C9.72508 9.59907 9.8181 9.64064 9.8181 9.64064L10.2133 9.19955C10.2133 9.19955 9.83582 9.0335 9.62612 9.0335H1.27739Z" fill="url(#paint8_linear_0_639)"/>
<path d="M10.0432 9.88182C10.0432 9.88182 10.124 10.0413 10.124 10.1686V11.3082C10.124 11.4713 10.1887 11.6126 10.1887 11.6126L10.5743 11.1665V9.8014C10.5743 9.58356 10.452 9.40032 10.452 9.40032L10.0432 9.88182Z" fill="url(#paint9_linear_0_639)"/>
<path d="M21.3093 9.66045V11.0256L21.9143 11.5455C21.9143 11.5455 21.9294 11.4069 21.9294 11.2443V10.1041C21.9294 9.97704 21.9668 9.89703 21.9668 9.89703L21.4379 9.3775C21.4379 9.3775 21.3093 9.4422 21.3093 9.66045Z" fill="url(#paint10_linear_0_639)"/>
<path d="M20.8567 11.2534H16.0998V11.8875H21.3636C21.5425 11.8875 21.7512 11.7707 21.7908 11.741L21.1943 11.1853C21.1943 11.1853 21.155 11.2534 20.8567 11.2534Z" fill="url(#paint11_linear_0_639)"/>
<path d="M10.3701 11.8084C10.3701 11.8084 10.4926 11.8937 10.835 11.8937C11.177 11.8937 16.0997 11.8875 16.0997 11.8875V11.2534H11.0189C10.9269 11.2534 10.8654 11.2366 10.8654 11.2366L10.3701 11.8084Z" fill="url(#paint12_linear_0_639)"/>
<path d="M11.7365 1.22585C11.461 1.22585 11.1858 1.37628 11.1858 1.67683V3.14906C11.1858 3.4492 11.0021 3.56952 10.7881 3.56952H4.69659C4.44914 3.56952 4.25768 3.67088 4.14769 3.87538C4.05764 4.04342 2.53641 7.038 2.04478 8.0058C1.93819 8.21572 2.03131 8.34333 2.30486 8.34333H10.819C11.1858 8.34333 11.2472 8.67399 11.2472 9.00423V10.1483C11.2472 10.3591 11.4611 10.5994 11.7059 10.5994H15.989V1.22585H11.7365Z" fill="url(#paint13_linear_0_639)"/>
<path d="M21.7104 9.15914L22.2008 9.6543C22.2008 9.6543 22.3232 9.58773 22.8956 9.58773H28.1263C28.235 9.58773 28.3849 9.53407 28.3849 9.53407L25.6199 8.98558C25.6199 8.98558 22.4187 8.98777 22.2689 8.98558C22.2633 8.98548 22.2577 8.98537 22.252 8.98537C21.9275 8.98537 21.7104 9.15914 21.7104 9.15914Z" fill="url(#paint14_linear_0_639)"/>
<path d="M21.8945 2.83434C21.8945 2.83434 22.1335 2.91279 22.3288 2.91279H30.5647C30.8153 2.91279 30.9616 2.93112 30.9616 2.93112L31.6272 2.5415C31.6272 2.5415 31.4136 2.4816 31.2 2.4816H22.6467C22.433 2.4816 22.3439 2.43253 22.3439 2.43253L21.8945 2.83434Z" fill="url(#paint15_linear_0_639)"/>
<path d="M31.2043 3.14177C31.2043 3.14177 31.2419 3.347 31.1708 3.48649C31.0998 3.62588 28.6105 8.43439 28.4982 8.65524C28.3854 8.87589 28.1315 8.95736 28.1315 8.95736L28.4151 9.5145C28.4151 9.5145 28.5157 9.43949 28.575 9.36375C28.6341 9.28833 31.697 3.16688 31.7917 2.95217C31.8861 2.73725 31.8032 2.65953 31.8032 2.65953L31.2043 3.14177Z" fill="url(#paint16_linear_0_639)"/>
<path d="M27.8674 8.99881C27.5405 8.99881 25.7015 9.01256 25.7015 9.01256L28.3168 9.53407C28.3168 9.53407 28.4804 9.46771 28.5621 9.33332C28.644 9.19956 28.5619 9.15956 28.4667 9.23967C28.3715 9.32041 28.2081 9.18664 28.2895 9.09288C28.3715 8.99881 28.453 8.70441 28.453 8.70441C28.453 8.70441 28.1945 8.99881 27.8674 8.99881Z" fill="url(#paint17_linear_0_639)"/>
<path d="M3.53716 8.5848C1.82437 8.69711 1.27737 9.01516 1.27737 9.01516H9.4565C10.3866 9.01516 10.2804 9.14007 10.2752 9.14569L10.9411 8.45406C10.9411 8.45406 9.32339 8.45406 8.29559 8.43552C8.16491 8.43312 8.01832 8.43198 7.85827 8.43198C6.75972 8.43198 5.03229 8.48698 3.53716 8.5848ZM10.275 9.1459C10.275 9.1459 10.2751 9.1458 10.2752 9.14569L10.275 9.1459Z" fill="url(#paint18_linear_0_639)"/>
<path d="M22.8289 8.43553C22.1012 8.45408 20.9554 8.45408 20.9554 8.45408L21.719 9.16029C21.719 9.16029 21.7976 8.99507 22.4714 8.99507C23.1455 8.99507 28.0037 8.97861 28.0037 8.97861C28.0037 8.97861 28.0856 8.71775 26.6551 8.61753C25.5283 8.53846 23.8278 8.43355 23.0057 8.43355C22.9411 8.43355 22.8821 8.43418 22.8289 8.43553Z" fill="url(#paint19_linear_0_639)"/>
<path d="M21.0983 3.64337C21.0983 3.64337 22.2443 3.64337 22.9722 3.66202C23.7 3.68066 28.1117 3.48419 29.3252 3.37188C30.5384 3.25979 30.9255 2.94184 30.9255 2.94184C30.9255 2.94184 23.2118 2.98226 22.5379 2.98226C21.8644 2.98226 21.9583 2.8511 21.9583 2.8511L21.0983 3.64337Z" fill="url(#paint20_linear_0_639)"/>
<path d="M10.4926 9.42052C10.4926 9.42052 10.5744 9.68106 10.5744 9.88181V10.7849C10.5744 11.0256 10.6562 11.1463 10.6562 11.1463L11.3509 10.4637C11.3509 10.4637 11.2472 10.2231 11.2472 10.0425V9.02433C11.2472 8.78889 11.1873 8.59741 11.1873 8.59741L10.4926 9.42052Z" fill="url(#paint21_linear_0_639)"/>
<path d="M20.6858 9.0186C20.6858 9.25404 20.6696 9.884 20.6696 10.065C20.6696 10.2451 20.6273 10.4637 20.6273 10.4637L21.3219 11.1463C21.3219 11.1463 21.4039 11.0256 21.4039 10.7849V9.88181C21.4039 9.68106 21.4857 9.42052 21.4857 9.42052L20.7417 8.57835C20.7417 8.57835 20.6858 8.78368 20.6858 9.0186Z" fill="url(#paint22_linear_0_639)"/>
<path d="M10.881 11.2263L15.9482 11.2663L15.9687 11.2659V10.5994L11.5552 10.5838L10.881 11.2263Z" fill="url(#paint23_linear_0_639)"/>
<path d="M15.989 10.5994H15.9687V11.2659L21.1789 11.2065L20.3413 10.5838L15.989 10.5994Z" fill="url(#paint24_linear_0_639)"/>
<path d="M10.9494 0.637025C10.8063 0.637025 10.674 0.712761 10.674 0.712761L11.3456 1.36179C11.3456 1.36179 11.4118 1.22083 11.885 1.22083H15.989V0.637025H10.9494Z" fill="url(#paint25_linear_0_639)"/>
<path d="M15.989 0.637022V1.22083H20.0929C20.5662 1.22083 20.6642 1.42314 20.6642 1.42314L21.3356 0.774431C21.3356 0.774431 21.1718 0.637022 21.0288 0.637022H15.989Z" fill="url(#paint26_linear_0_639)"/>
<path d="M10.5459 1.20406V2.38262C10.5459 2.52242 10.4835 2.68807 10.4835 2.68807L11.1412 3.42126C11.1412 3.42126 11.1856 3.36032 11.1856 3.05498C11.1856 2.74943 11.2121 1.55379 11.2121 1.55379L10.5546 0.829339C10.5546 0.829339 10.5459 1.02092 10.5459 1.20406Z" fill="url(#paint27_linear_0_639)"/>
<path d="M20.6917 1.56785V3.03321C20.6917 3.33865 20.8372 3.42126 20.8372 3.42126L21.641 2.62598C21.641 2.62598 21.5362 2.45961 21.5362 2.32022C21.5362 2.18041 21.5294 1.32835 21.5294 1.1451C21.5294 0.96185 21.5376 0.792355 21.5376 0.792355L20.6917 1.56785Z" fill="url(#paint28_linear_0_639)"/>
<path d="M10.0022 2.9981H4.36301C4.19956 2.9981 3.93375 3.05832 3.85208 3.13874L4.36301 3.66057C4.36301 3.66057 4.50589 3.56035 4.85336 3.56035H10.7173C10.881 3.56035 11.0442 3.49982 11.0442 3.49982L10.3907 2.83778C10.3907 2.83778 10.227 2.9981 10.0022 2.9981Z" fill="url(#paint29_linear_0_639)"/>
<path d="M27.5665 8.36541C27.5665 8.36541 27.8822 8.24883 27.981 8.61721C27.981 8.61721 28.0598 8.73378 28.2769 8.42323C28.4939 8.1133 30.5467 3.96601 30.5264 3.90736C30.5066 3.84943 30.0922 3.77172 30.0922 3.77172L27.5665 8.36541Z" fill="url(#paint30_linear_0_639)"/>
<path d="M30.1516 3.811C30.2505 3.86893 30.3491 3.94664 30.211 4.23719C30.073 4.52743 28.4941 7.55138 28.1589 8.13258C27.8234 8.71389 28.119 8.94662 28.119 8.94662C28.119 8.94662 28.3759 8.83005 28.453 8.70441C28.5307 8.57836 30.9412 3.8883 31.1071 3.57337C31.2731 3.25834 31.1579 3.13229 31.1579 3.13229L30.1516 3.811Z" fill="url(#paint31_linear_0_639)"/>
<path d="M15.989 1.22585V10.5994H20.2091C20.4536 10.5994 20.6678 10.5092 20.6678 10.2383V8.84036C20.6678 8.57002 20.8511 8.36011 21.0655 8.36011H27.4316C27.6551 8.36011 27.8556 8.23176 27.9721 8.02038C28.4922 7.07571 29.9249 4.33616 30.0333 4.11531C30.1656 3.8457 30.0837 3.68953 29.7771 3.68953H21.3407C20.9738 3.68953 20.698 3.4194 20.698 3.08885V1.5565C20.698 1.34617 20.5759 1.22585 20.3006 1.22585H15.989Z" fill="url(#paint32_linear_0_639)"/>
<path d="M1.20844 8.7543L2.02516 8.2679C2.02516 8.2679 1.93161 8.2279 2.07862 7.9388C2.22584 7.64971 3.60483 4.88818 3.60483 4.88818L3.29713 4.82276L1.20844 8.7543Z" fill="url(#paint33_linear_0_639)"/>
<path d="M1.1345 8.39667C0.930103 8.75806 0.971257 8.89828 0.971257 8.89828L1.4615 8.57721C1.4615 8.57721 3.64768 4.42315 3.87243 3.94133C4.0973 3.45982 3.76223 3.26365 3.76223 3.26365C3.76223 3.26365 1.33889 8.03559 1.1345 8.39667Z" fill="url(#paint34_linear_0_639)"/>
<path d="M1.4653 9.03235C1.43284 9.0537 1.13405 9.08985 1.07571 9.03235C1.01716 8.97526 0.919474 8.93067 0.99754 8.8667C1.07571 8.80264 2.03669 8.24164 2.03669 8.24164C2.03669 8.24164 1.92001 8.30529 2.9074 8.30529H10.8061C11.014 8.30529 11.2087 8.44541 11.2348 8.5349C11.2609 8.62439 11.2088 8.66252 11.1439 8.64991C11.0792 8.63699 10.91 8.58595 10.8711 8.52198C10.8322 8.45833 10.9231 8.40728 10.3514 8.40728C9.77977 8.40728 5.41475 8.47125 4.42757 8.56042C3.44018 8.64991 2.14064 8.58595 1.4653 9.03235Z" fill="white"/>
<path d="M30.6401 2.95854C30.6724 2.9376 30.9715 2.90145 31.0299 2.95854C31.0882 3.01605 31.1859 3.06064 31.1078 3.1246C31.0299 3.18825 30.0686 3.74966 30.0686 3.74966C30.0686 3.74966 30.1851 3.68601 29.198 3.68601H21.2991C21.0912 3.68601 20.8964 3.54589 20.8705 3.45641C20.8444 3.36681 20.8963 3.32837 20.961 3.34139C21.0264 3.35431 21.1951 3.40536 21.2342 3.46891C21.2732 3.53298 21.1821 3.58361 21.7539 3.58361C22.3257 3.58361 26.6902 3.52006 27.678 3.43088C28.6651 3.34139 29.9647 3.40536 30.6401 2.95854Z" fill="white"/>
<path d="M4.01556 3.69673C4.01556 3.60641 4.06658 3.43587 4.02585 3.38597C3.98491 3.33565 4.10752 3.27544 4.1893 3.32534C4.27097 3.37566 4.4446 3.41566 4.46497 3.45598C4.48544 3.49598 4.45479 3.5962 4.34246 3.63652C4.23003 3.67652 4.12788 3.76684 3.95425 4.13782C3.78051 4.50952 2.78941 6.39575 2.78941 6.39575C2.78941 6.39575 2.9326 6.09489 2.8713 6.08457C2.80999 6.07468 2.66711 6.32564 2.66711 6.32564L4.01556 3.69673Z" fill="white"/>
<path d="M10.8465 3.51925C10.762 3.52759 10.7383 3.43664 10.8104 3.42476C10.883 3.41289 10.979 3.40726 11.0631 3.08192C11.1476 2.75668 11.0875 1.7698 11.0753 1.5926C11.0631 1.41519 10.9791 1.20256 11.0996 1.10807C11.2197 1.01327 11.3041 1.21444 11.6171 1.21444C11.9299 1.21444 12.6401 1.19079 12.6401 1.19079C12.6401 1.19079 11.6412 1.26132 11.4724 1.28528C11.304 1.30892 11.1595 1.43873 11.1835 1.67532C11.2078 1.9118 11.1476 3.12953 11.0996 3.25943C11.0513 3.38934 10.9669 3.50738 10.8465 3.51925Z" fill="white"/>
<path d="M17.5861 1.19806C17.4536 1.2041 20.1239 1.22889 20.2922 1.22889C20.4608 1.22889 20.6533 1.27911 20.6895 1.44444C20.7256 1.61018 20.7 2.15263 20.7 2.15263C20.7 2.15263 20.783 1.45631 20.9034 1.3264C21.0237 1.19608 20.9876 1.00721 20.8311 1.04221C20.6746 1.07805 19.4354 1.11617 17.5861 1.19806Z" fill="white"/>
<path d="M21.152 8.44503C21.068 8.43284 20.9719 8.42138 20.9476 8.49223C20.9236 8.56265 21.0556 8.60995 20.9236 8.68037C20.7918 8.75121 20.6936 8.79465 20.6936 8.73569C20.6936 8.67662 20.7617 8.37378 21.0139 8.37378C21.2661 8.37378 27.4902 8.362 27.5869 8.362C27.6825 8.362 27.8028 8.37378 27.8507 8.46826C27.8986 8.56265 27.9585 8.79851 27.9948 8.86935C28.0307 8.94019 27.9707 8.94019 27.8625 8.79851C27.7546 8.65683 27.4786 8.59817 27.2626 8.60995C27.0463 8.62172 21.152 8.44503 21.152 8.44503Z" fill="white"/>
<path d="M28.0186 8.64536C28.0186 8.64536 27.9587 8.51586 27.9227 8.43283C27.8866 8.35053 27.7787 8.31553 27.7787 8.31553C27.7787 8.31553 27.8986 8.17343 28.0666 7.86715C28.2348 7.56098 29.0271 6.09833 29.1111 5.89789C29.1111 5.89789 28.9309 6.44076 29.2793 5.99238C29.2793 5.99238 28.1507 8.09082 28.0786 8.2325C28.0068 8.37418 28.0186 8.64536 28.0186 8.64536Z" fill="white"/>
<path d="M11.3219 10.2958C11.3219 10.2958 11.3362 10.4653 11.236 10.5357C11.1356 10.6062 11.0925 10.733 11.1786 10.7895C11.2648 10.8459 11.3221 10.8176 11.3795 10.733C11.4369 10.6485 11.638 10.578 11.7671 10.6062C11.7671 10.6062 11.3219 10.6622 11.3219 10.2958Z" fill="white"/>
<path d="M17.5087 10.5979C17.5087 10.5979 19.9313 10.7232 20.0748 10.7296C20.2179 10.7361 20.3188 10.7407 20.3188 10.7407C20.3188 10.7407 20.0617 10.7007 20.1377 10.6195L17.5087 10.5979Z" fill="white"/>
<path d="M20.3801 10.5781C20.3801 10.5781 20.3084 10.6908 20.4232 10.7468C20.5381 10.8032 20.6531 10.8596 20.7248 10.775C20.7964 10.6905 20.6674 10.4649 20.6816 10.3099C20.6816 10.3099 20.739 10.5498 20.3801 10.5781Z" fill="white"/>
<path d="M23.3348 10.7822H23.2007V11.0054H23.3348C23.4031 11.0054 23.4234 10.9788 23.4234 10.9349V10.8523C23.4234 10.7959 23.3967 10.7822 23.3348 10.7822ZM23.3348 11.0777H23.2007V11.2614H23.119V10.7086H23.3348C23.457 10.7086 23.5051 10.762 23.5051 10.8523V10.9349C23.5051 10.9948 23.484 11.0351 23.4234 11.0618L23.5749 11.2614H23.4781L23.3348 11.0777ZM23.3097 11.4298C23.5978 11.4298 23.749 11.2358 23.749 10.9977C23.749 10.7597 23.5978 10.5628 23.3097 10.5628C23.0213 10.5628 22.8665 10.7597 22.8665 10.9977C22.8665 11.2358 23.0213 11.4298 23.3097 11.4298ZM23.3097 10.4897C23.629 10.4897 23.8239 10.7164 23.8239 10.9967C23.8239 11.2732 23.629 11.5032 23.3097 11.5032C22.9885 11.5032 22.7919 11.2732 22.7919 10.9967C22.7919 10.7164 22.9885 10.4897 23.3097 10.4897Z" fill="black"/>
<path d="M6.88787 14.1335H5.99646V13.0193H5.13623V15.7894H5.99646V14.595H6.88787V15.7894H7.74897V13.0193H6.88787V14.1335Z" fill="black"/>
<path d="M22.7133 15.3283V13.0192H21.8528V15.7893H23.9448V15.3283H22.7133Z" fill="black"/>
<path d="M27.6053 13.0193V13.4812H28.3884V15.7894H29.2485V13.4812H30.0322V13.0193H27.6053Z" fill="black"/>
<path d="M2.03217 13.5959C2.03217 13.2497 2.24509 13.0191 2.56448 13.0191H4.29007V13.4807H3.05296C2.95677 13.4807 2.89352 13.5506 2.89352 13.654V15.1543C2.89352 15.2585 2.95677 15.3282 3.05296 15.3282H4.29007V15.7892H2.56448C2.24509 15.7892 2.03217 15.5581 2.03217 15.2123V13.5959Z" fill="black"/>
<path d="M16.9992 14.6656L17.7431 15.7894H16.8284L16.1698 14.6467V14.2856H16.5253C16.6211 14.2856 16.6848 14.2155 16.6848 14.1122V13.6542C16.6848 13.5508 16.6211 13.4812 16.5253 13.4812H15.9233V15.7894H15.0623V13.0193H17.0134C17.3337 13.0193 17.5455 13.2499 17.5455 13.5961L17.5464 14.156C17.5464 14.461 17.3589 14.6656 17.0764 14.6656H16.9992Z" fill="black"/>
<path d="M19.9823 15.3283C20.0775 15.3283 20.1416 15.2587 20.1416 15.1549V13.6541C20.1416 13.5509 20.0775 13.4808 19.9823 13.4808H19.3821C19.2864 13.4808 19.2221 13.5509 19.2221 13.6541V15.1549C19.2221 15.2587 19.2864 15.3283 19.3821 15.3283H19.9823ZM18.3617 13.596C18.3617 13.2498 18.5738 13.0192 18.8935 13.0192H20.4703C20.7894 13.0192 21.0028 13.2498 21.0028 13.596V15.2126C21.0028 15.5583 20.7894 15.7893 20.4703 15.7893H18.8935C18.5738 15.7893 18.3617 15.5583 18.3617 15.2126V13.596Z" fill="black"/>
<path d="M11.5782 13.0193H12.5011L13.0519 15.1608C13.056 15.1803 13.0701 15.1917 13.0901 15.1917C13.1096 15.1917 13.1249 15.1803 13.1285 15.1608L13.664 13.0193H14.3863L13.7191 15.3964C13.6383 15.6671 13.4924 15.7894 13.186 15.7894H12.7565C12.5595 15.7894 12.3988 15.6895 12.3022 15.3944L11.5782 13.0193Z" fill="black"/>
<path d="M9.47941 15.2409C9.47941 15.294 9.51122 15.3278 9.55957 15.3278H10.9739V15.7894H9.15062C8.83136 15.7894 8.61868 15.5583 8.61868 15.213V13.596C8.61868 13.2498 8.83136 13.0193 9.15062 13.0193H10.9739V13.4812H9.55957C9.51122 13.4812 9.47941 13.5156 9.47941 13.5678V14.1331H10.8116V14.5951H9.47941V15.2409Z" fill="black"/>
<path d="M25.4051 15.2409C25.4051 15.294 25.4366 15.3278 25.4841 15.3278H26.8992V15.7894H25.0758C24.7567 15.7894 24.5427 15.5583 24.5427 15.213V13.596C24.5427 13.2498 24.7567 13.0193 25.0758 13.0193H26.8992V13.4812H25.4841C25.4366 13.4812 25.4051 13.5156 25.4051 13.5678V14.1331H26.7364V14.5951H25.4051V15.2409Z" fill="black"/>
</g>
<defs>
<linearGradient id="paint0_linear_0_639" x1="3.50163" y1="3.6629" x2="3.48914" y2="8.37379" gradientUnits="userSpaceOnUse">
<stop stop-color="#C7D6EE"/>
<stop offset="0.185394" stop-color="#91AFC8"/>
<stop offset="1" stop-color="#002334"/>
</linearGradient>
<linearGradient id="paint1_linear_0_639" x1="17.3927" y1="-1.06867" x2="20.2867" y2="1.87785" gradientUnits="userSpaceOnUse">
<stop stop-color="#E1E8F5"/>
<stop offset="0.89888" stop-color="#92A5C1"/>
<stop offset="0.955063" stop-color="#476886"/>
<stop offset="1" stop-color="#E1E8F5"/>
</linearGradient>
<linearGradient id="paint2_linear_0_639" x1="11.7846" y1="1.86137" x2="14.7452" y2="-1.15291" gradientUnits="userSpaceOnUse">
<stop stop-color="#E1E8F5"/>
<stop offset="0.0393219" stop-color="#476886"/>
<stop offset="0.0898895" stop-color="#92A5C1"/>
<stop offset="1" stop-color="#E1E8F5"/>
</linearGradient>
<linearGradient id="paint3_linear_0_639" x1="9.8537" y1="1.99907" x2="10.8189" y2="1.08272" gradientUnits="userSpaceOnUse">
<stop stop-color="#E1E8F5"/>
<stop offset="0.157303" stop-color="#C7D6EE"/>
<stop offset="1" stop-color="#E1E8F5"/>
</linearGradient>
<linearGradient id="paint4_linear_0_639" x1="22.3446" y1="2.03508" x2="21.3227" y2="1.06482" gradientUnits="userSpaceOnUse">
<stop stop-color="#E1E8F5"/>
<stop offset="0.157303" stop-color="#C7D6EE"/>
<stop offset="1" stop-color="#E1E8F5"/>
</linearGradient>
<linearGradient id="paint5_linear_0_639" x1="5.21079" y1="4.47302" x2="8.53123" y2="1.09231" gradientUnits="userSpaceOnUse">
<stop stop-color="#476886"/>
<stop offset="0.129211" stop-color="#92A5C1"/>
<stop offset="1" stop-color="#E1E8F5"/>
</linearGradient>
<linearGradient id="paint6_linear_0_639" x1="0.974277" y1="9.16385" x2="0.587545" y2="8.60152" gradientUnits="userSpaceOnUse">
<stop stop-color="#002334"/>
<stop offset="0.106735" stop-color="white"/>
<stop offset="0.185394" stop-color="#91AFC8"/>
<stop offset="0.241577" stop-color="#002334"/>
<stop offset="0.533707" stop-color="#5E738F"/>
<stop offset="0.758423" stop-color="#002334"/>
<stop offset="1" stop-color="#002334"/>
</linearGradient>
<linearGradient id="paint7_linear_0_639" x1="3.80368" y1="5.24228" x2="0.775169" y2="6.81153" gradientUnits="userSpaceOnUse">
<stop stop-color="#91AFC8"/>
<stop offset="1" stop-color="#002334"/>
</linearGradient>
<linearGradient id="paint8_linear_0_639" x1="5.46411" y1="9.96724" x2="5.23821" y2="8.66282" gradientUnits="userSpaceOnUse">
<stop stop-color="#A5B9CC"/>
<stop offset="1" stop-color="#002334"/>
</linearGradient>
<linearGradient id="paint9_linear_0_639" x1="10.1389" y1="10.5065" x2="10.5277" y2="10.5065" gradientUnits="userSpaceOnUse">
<stop stop-color="#5E738F"/>
<stop offset="0.48877" stop-color="#91AFC8"/>
<stop offset="1" stop-color="#91AFC8"/>
</linearGradient>
<linearGradient id="paint10_linear_0_639" x1="21.8482" y1="10.4615" x2="21.3669" y2="10.4615" gradientUnits="userSpaceOnUse">
<stop stop-color="#5E738F"/>
<stop offset="0.320221" stop-color="#91AFC8"/>
<stop offset="1" stop-color="#91AFC8"/>
</linearGradient>
<linearGradient id="paint11_linear_0_639" x1="18.2322" y1="12.7103" x2="19.5135" y2="10.4508" gradientUnits="userSpaceOnUse">
<stop stop-color="#A5B9CC"/>
<stop offset="1" stop-color="#002334"/>
</linearGradient>
<linearGradient id="paint12_linear_0_639" x1="12.6845" y1="10.5946" x2="13.9758" y2="12.8716" gradientUnits="userSpaceOnUse">
<stop stop-color="#002334"/>
<stop offset="0.775284" stop-color="#A5B9CC"/>
<stop offset="1" stop-color="#A5B9CC"/>
</linearGradient>
<linearGradient id="paint13_linear_0_639" x1="7.41357" y1="2.02359" x2="13.1799" y2="12.1925" gradientUnits="userSpaceOnUse">
<stop stop-color="#FFEFCF"/>
<stop offset="0.460678" stop-color="#FFE4A6"/>
<stop offset="1" stop-color="#BC956E"/>
</linearGradient>
<linearGradient id="paint14_linear_0_639" x1="23.9155" y1="10.5861" x2="25.5443" y2="8.7375" gradientUnits="userSpaceOnUse">
<stop stop-color="#5E738F"/>
<stop offset="0.606735" stop-color="#91AFC8"/>
<stop offset="1" stop-color="#C7DFF4"/>
</linearGradient>
<linearGradient id="paint15_linear_0_639" x1="25.5757" y1="0.671723" x2="27.7231" y2="4.45854" gradientUnits="userSpaceOnUse">
<stop stop-color="#E1E8F5"/>
<stop offset="0.814606" stop-color="#7F97B4"/>
<stop offset="0.904495" stop-color="#476886"/>
<stop offset="1" stop-color="#002334"/>
</linearGradient>
<linearGradient id="paint16_linear_0_639" x1="28.1346" y1="9.23878" x2="31.634" y2="3.0675" gradientUnits="userSpaceOnUse">
<stop stop-color="#8CA0B5"/>
<stop offset="0.140442" stop-color="#E1E8F5"/>
<stop offset="0.814606" stop-color="#7F97B4"/>
<stop offset="0.904495" stop-color="#476886"/>
<stop offset="1" stop-color="#002334"/>
</linearGradient>
<linearGradient id="paint17_linear_0_639" x1="26.8911" y1="9.34208" x2="28.153" y2="8.60025" gradientUnits="userSpaceOnUse">
<stop stop-color="#002334"/>
<stop offset="0.814606" stop-color="#A5B9CC"/>
<stop offset="0.887634" stop-color="#002334"/>
<stop offset="1" stop-color="#002334"/>
</linearGradient>
<linearGradient id="paint18_linear_0_639" x1="3.93709" y1="6.60122" x2="8.02757" y2="10.766" gradientUnits="userSpaceOnUse">
<stop stop-color="#D4BC7B"/>
<stop offset="0.331467" stop-color="#7F5F39"/>
<stop offset="1" stop-color="#D4BC7B"/>
</linearGradient>
<linearGradient id="paint19_linear_0_639" x1="26.0397" y1="7.18402" x2="23.1179" y2="10.1588" gradientUnits="userSpaceOnUse">
<stop stop-color="#D4BC7B"/>
<stop offset="0.331467" stop-color="#7F5F39"/>
<stop offset="1" stop-color="#D4BC7B"/>
</linearGradient>
<linearGradient id="paint20_linear_0_639" x1="28.5308" y1="0.818623" x2="23.8082" y2="5.6269" gradientUnits="userSpaceOnUse">
<stop stop-color="#D4BC7B"/>
<stop offset="0.331467" stop-color="#7F5F39"/>
<stop offset="1" stop-color="#D4BC7B"/>
</linearGradient>
<linearGradient id="paint21_linear_0_639" x1="10.6475" y1="9.87187" x2="11.2756" y2="9.87187" gradientUnits="userSpaceOnUse">
<stop stop-color="#D3BD8B"/>
<stop offset="1" stop-color="#7F5F39"/>
</linearGradient>
<linearGradient id="paint22_linear_0_639" x1="21.3308" y1="9.86235" x2="20.7025" y2="9.86235" gradientUnits="userSpaceOnUse">
<stop stop-color="#D3BD8B"/>
<stop offset="1" stop-color="#7F5F39"/>
</linearGradient>
<linearGradient id="paint23_linear_0_639" x1="12.9636" y1="10.1282" x2="14.0999" y2="12.1321" gradientUnits="userSpaceOnUse">
<stop stop-color="#7F5F39"/>
<stop offset="0.646072" stop-color="#D3BD8B"/>
<stop offset="0.887634" stop-color="#FFE4A6"/>
<stop offset="1" stop-color="#FFE4A6"/>
</linearGradient>
<linearGradient id="paint24_linear_0_639" x1="19.0235" y1="10.1381" x2="17.7821" y2="12.3272" gradientUnits="userSpaceOnUse">
<stop stop-color="#7F5F39"/>
<stop offset="0.455063" stop-color="#D3BD8B"/>
<stop offset="0.887634" stop-color="#FFE4A6"/>
<stop offset="1" stop-color="#FFE4A6"/>
</linearGradient>
<linearGradient id="paint25_linear_0_639" x1="12.1321" y1="2.14495" x2="14.7798" y2="-0.550782" gradientUnits="userSpaceOnUse">
<stop stop-color="#D4BC7B"/>
<stop offset="0.0393219" stop-color="#7F5F39"/>
<stop offset="0.106735" stop-color="#D1AC75"/>
<stop offset="1" stop-color="#D4BC7B"/>
</linearGradient>
<linearGradient id="paint26_linear_0_639" x1="19.8853" y1="2.19891" x2="17.1914" y2="-0.543911" gradientUnits="userSpaceOnUse">
<stop stop-color="#D4BC7B"/>
<stop offset="0.0393219" stop-color="#7F5F39"/>
<stop offset="0.106735" stop-color="#D1AC75"/>
<stop offset="1" stop-color="#D4BC7B"/>
</linearGradient>
<linearGradient id="paint27_linear_0_639" x1="10.3467" y1="2.58445" x2="11.3324" y2="1.64852" gradientUnits="userSpaceOnUse">
<stop stop-color="#FFE292"/>
<stop offset="0.157303" stop-color="#D1AC75"/>
<stop offset="1" stop-color="#FFE292"/>
</linearGradient>
<linearGradient id="paint28_linear_0_639" x1="21.6928" y1="2.57143" x2="20.6652" y2="1.59575" gradientUnits="userSpaceOnUse">
<stop stop-color="#FFE292"/>
<stop offset="0.157303" stop-color="#D1AC75"/>
<stop offset="1" stop-color="#FFE292"/>
</linearGradient>
<linearGradient id="paint29_linear_0_639" x1="5.80769" y1="4.93063" x2="8.88331" y2="1.79918" gradientUnits="userSpaceOnUse">
<stop stop-color="#7F5F39"/>
<stop offset="1" stop-color="#BD9B6A"/>
</linearGradient>
<linearGradient id="paint30_linear_0_639" x1="28.3988" y1="5.49881" x2="29.7074" y2="6.83111" gradientUnits="userSpaceOnUse">
<stop stop-color="#7F5F39"/>
<stop offset="1" stop-color="#D4BC7B"/>
</linearGradient>
<linearGradient id="paint31_linear_0_639" x1="27.9565" y1="8.80487" x2="30.8143" y2="3.20033" gradientUnits="userSpaceOnUse">
<stop stop-color="#A78A5E"/>
<stop offset="0.764038" stop-color="#7F5F39"/>
<stop offset="0.915726" stop-color="#674C2B"/>
<stop offset="1" stop-color="#674C2B"/>
</linearGradient>
<linearGradient id="paint32_linear_0_639" x1="25.4837" y1="10.0711" x2="17.3022" y2="0.143709" gradientUnits="userSpaceOnUse">
<stop stop-color="#FFEFCF"/>
<stop offset="0.460678" stop-color="#FFE4A6"/>
<stop offset="1" stop-color="#BC956E"/>
</linearGradient>
<linearGradient id="paint33_linear_0_639" x1="0.880277" y1="8.29446" x2="3.71733" y2="5.40591" gradientUnits="userSpaceOnUse">
<stop stop-color="#7F5F39"/>
<stop offset="1" stop-color="#E9CF98"/>
</linearGradient>
<linearGradient id="paint34_linear_0_639" x1="0.369712" y1="8.12253" x2="4.19021" y2="4.23268" gradientUnits="userSpaceOnUse">
<stop stop-color="#7F5F39"/>
<stop offset="1" stop-color="#E4CB90"/>
</linearGradient>
<clipPath id="clip0_0_639">
<rect width="32" height="16" fill="white"/>
</clipPath>
</defs>
</svg>
