<svg width="32" height="29" viewBox="0 0 32 29" fill="none" xmlns="http://www.w3.org/2000/svg">
<path fill-rule="evenodd" clip-rule="evenodd" d="M31.0337 27.2916C28.24 24.8963 19.9401 18.0803 16 18.0803C12.0582 18.0803 3.76464 24.8917 0.969241 27.2887C0.95245 26.7225 0.936817 26.3785 0.936817 25.8742C0.936817 25.8742 0.868496 25.0416 1.60498 24.2084C7.66476 18.7178 14.0181 16.0313 14.2132 15.9491C16.1077 15.1483 16.0012 15.2988 15.9994 12.0854C15.9994 12.0854 16.084 12.0802 16.1378 12.086C18.8058 12.3274 25.979 19.2893 30.2242 23.996C30.2317 24.0041 31.062 24.9652 31.062 25.9784C31.0632 26.4532 31.0493 26.9216 31.0337 27.2916ZM30.9196 23.3625C30.4686 22.8623 19.8457 11.1364 16 11.1364C12.1555 11.1364 1.53203 22.8623 1.08157 23.3619L1.08099 23.3625C1.03698 23.4117 0 24.597 0 25.979C0 27.0548 0.0712166 28.1375 0.0723746 28.1479C0.0746906 28.1977 0.0995873 28.6551 0.353767 28.7796C0.394876 28.7999 0.439459 28.8103 0.4852 28.8103C0.579576 28.8103 0.684954 28.768 0.799016 28.6847C0.913658 28.5833 11.7357 19.0247 16 19.0247C20.2649 19.0247 31.0875 28.5833 31.1958 28.68C31.3139 28.7669 31.4204 28.8103 31.516 28.8103C31.5623 28.8103 31.6057 28.7999 31.6474 28.7802C31.901 28.6563 31.9259 28.1983 31.9282 28.1468C31.9288 28.1387 32 27.056 32 25.9802C32 24.597 30.963 23.4117 30.9196 23.3625ZM31.0186 16.139C28.2278 13.7465 19.936 6.93754 16.0006 6.93754C12.0628 6.93754 3.77738 13.7425 0.984874 16.1366C0.968083 15.5715 0.952451 15.227 0.952451 14.7239C0.952451 14.7239 0.884128 13.8919 1.62003 13.0599C7.67402 7.57444 14.021 4.89079 14.2155 4.80857C16.1083 4.0084 16.0017 4.15894 16 0.948976C16 0.948976 16.084 0.943765 16.1384 0.949555C18.8035 1.191 25.9697 8.14591 30.2103 12.8474C30.2178 12.8555 31.0476 13.8154 31.0476 14.8281C31.0481 15.3017 31.0337 15.7696 31.0186 16.139ZM30.9045 12.2139C30.4535 11.7143 19.8416 0 16 0C12.1595 0 1.5465 11.7143 1.09662 12.2134L1.09604 12.2139C1.05204 12.2632 0.0156333 13.4472 0.0156333 14.8281C0.0156333 15.9027 0.087429 16.9843 0.088008 16.9947C0.0903239 17.0445 0.115221 17.5013 0.368821 17.6258C0.40993 17.6461 0.454513 17.6559 0.500253 17.6559C0.59463 17.6559 0.699429 17.6137 0.813491 17.5303C0.928712 17.429 11.7397 7.88015 16 7.88015C20.2608 7.88015 31.0724 17.429 31.1807 17.5257C31.2983 17.6125 31.4048 17.6554 31.5003 17.6554C31.5466 17.6554 31.5901 17.6455 31.6318 17.6252C31.8848 17.5013 31.9103 17.0439 31.912 16.9924C31.9126 16.9843 31.9838 15.9027 31.9838 14.8281C31.9844 13.4472 30.9485 12.2632 30.9045 12.2139Z" fill="#6E6E6E"/>
</svg>
