<svg width="32" height="13" viewBox="0 0 32 13" fill="none" xmlns="http://www.w3.org/2000/svg">
<g clip-path="url(#clip0_0_24701)">
<path d="M15.9999 0.187103C7.22284 0.187103 0.187119 2.81794 0.187119 6.11641C0.187119 9.39479 7.28081 12.046 15.9999 12.046C24.7192 12.046 31.8129 9.3859 31.8129 6.11641C31.8129 2.84692 24.7192 0.187103 15.9999 0.187103Z" fill="#003478"/>
<path d="M22.2284 7.37245C22.2327 7.39961 22.2683 7.42562 22.3028 7.43793C22.3156 7.44217 22.3218 7.45066 22.3085 7.47952C22.21 7.69056 22.1195 7.81224 21.9961 7.99561C21.8825 8.16505 21.7546 8.29723 21.5998 8.42439C21.3662 8.61765 21.0419 8.82804 20.7737 8.68661C20.6546 8.6248 20.6031 8.4581 20.6054 8.32315C20.611 7.94366 20.7799 7.55407 21.0916 7.17117C21.4716 6.7033 21.8918 6.46062 22.1675 6.59327C22.4528 6.72933 22.3617 7.05961 22.234 7.31886C22.2241 7.33894 22.2241 7.35591 22.2283 7.37232M25.2896 4.41547C25.3101 4.37926 25.2885 4.35281 25.2428 4.35281C25.0045 4.35281 24.6919 4.35335 24.4436 4.35335C24.3845 4.35335 24.3539 4.36041 24.3261 4.41557C24.2344 4.59115 23.1177 6.26484 22.9098 6.58986C22.8747 6.63936 22.832 6.63242 22.8271 6.5757C22.806 6.38266 22.6393 6.16075 22.3766 6.05457C22.1764 5.97339 21.9808 5.95867 21.7773 5.98568C21.41 6.03505 21.0828 6.2288 20.7951 6.44733C20.3615 6.77696 19.9873 7.20422 19.5044 7.5199C19.2408 7.69175 18.8797 7.84162 18.6382 7.6179C18.4195 7.4152 18.4442 6.96501 18.7788 6.61681C18.814 6.58032 18.8563 6.61114 18.8496 6.64353C18.8181 6.801 18.8567 6.9576 18.9763 7.06741C19.1223 7.19824 19.3311 7.213 19.5099 7.12568C19.7208 7.02115 19.8448 6.81933 19.8809 6.59027C19.9368 6.23494 19.6633 5.92154 19.321 5.8964C19.043 5.87688 18.7764 5.97361 18.5166 6.18804C18.3863 6.2961 18.3123 6.37593 18.1997 6.53614C18.1722 6.5756 18.1301 6.57954 18.1313 6.52127C18.1441 6.06634 17.9561 5.81038 17.58 5.80204C17.288 5.79497 16.9762 5.95345 16.7331 6.14727C16.4666 6.36128 16.2336 6.64491 15.9838 6.91141C15.9526 6.94422 15.9256 6.94266 15.9169 6.87901C15.9098 6.57759 15.8336 6.28564 15.6941 6.07831C15.6447 6.00618 15.5408 5.97052 15.4535 6.01918C15.4132 6.04124 15.273 6.10575 15.1708 6.18795C15.1202 6.22968 15.1004 6.29008 15.1229 6.36749C15.2575 6.81781 15.228 7.32982 15.0452 7.76225C14.8775 8.15831 14.5514 8.51551 14.1682 8.63641C13.9158 8.71647 13.6534 8.6773 13.491 8.45348C13.2679 8.1446 13.358 7.60741 13.6905 7.16137C13.9839 6.76861 14.4083 6.51912 14.8316 6.35847C14.8814 6.33924 14.8917 6.30727 14.8775 6.26498C14.8546 6.19539 14.8179 6.10061 14.803 6.05736C14.7641 5.95396 14.6554 5.93726 14.5227 5.95169C14.2151 5.98747 13.9376 6.09286 13.6635 6.23962C12.9458 6.62394 12.586 7.36777 12.4283 7.7657C12.3524 7.95687 12.2875 8.07611 12.2036 8.18185C12.0904 8.32405 11.9484 8.45353 11.6887 8.68161C11.6652 8.70254 11.6476 8.7461 11.6674 8.78669C11.6939 8.84157 11.829 9.03233 11.8671 9.04935C11.9094 9.07014 11.9584 9.04085 11.9781 9.02699C12.1598 8.90379 12.3773 8.70854 12.4836 8.57611C12.521 8.53071 12.5593 8.54981 12.5791 8.61869C12.6784 8.97293 12.9384 9.26218 13.2979 9.38318C13.956 9.6051 14.6385 9.28388 15.1538 8.72466C15.4812 8.36922 15.5993 8.14061 15.7249 7.98523C15.9376 7.7217 16.3571 7.13215 16.8569 6.75364C17.0401 6.61404 17.257 6.50757 17.366 6.57829C17.4536 6.63501 17.4819 6.76681 17.3414 7.02221C16.8319 7.95261 16.0823 9.04574 15.9448 9.31081C15.9196 9.35678 15.942 9.39298 15.9898 9.39298C16.2564 9.39166 16.5207 9.39233 16.7627 9.39233C16.803 9.39092 16.821 9.37196 16.8412 9.34353C17.2322 8.73147 17.6002 8.14895 17.9946 7.54666C18.0167 7.51116 18.037 7.53816 18.0379 7.55372C18.0464 7.69346 18.0803 7.88458 18.1633 8.0101C18.3124 8.24212 18.5237 8.34182 18.758 8.34335C18.9445 8.34618 19.0388 8.31717 19.2399 8.24206C19.4035 8.18138 19.5348 8.10176 19.6356 8.02969C19.6944 7.98867 19.7048 8.05728 19.7034 8.06774C19.6128 8.55364 19.7246 9.12936 20.2075 9.36807C20.7854 9.65302 21.4203 9.25251 21.7856 8.89095C21.8214 8.85616 21.8597 8.85983 21.8634 8.93494C21.8719 9.07298 21.9336 9.23679 22.0478 9.35143C22.3539 9.65867 22.9717 9.5369 23.5917 9.05705C23.9897 8.74981 24.4062 8.31575 24.7824 7.85611C24.7965 7.83828 24.8067 7.80972 24.7796 7.78072C24.7223 7.72075 24.6394 7.65215 24.5826 7.59932C24.5567 7.57726 24.5187 7.58361 24.4969 7.60008C24.1112 7.96683 23.7641 8.38508 23.2624 8.73096C23.0932 8.84907 22.8235 8.94435 22.7024 8.78034C22.6552 8.7167 22.6605 8.62869 22.7067 8.51316C22.8529 8.14838 25.1688 4.62239 25.2891 4.41443" fill="white"/>
<path d="M14.3935 4.84095C14.4034 4.89328 14.4238 4.90348 14.4476 4.89909C14.5655 4.87547 14.6946 4.77844 14.7711 4.66596C14.8407 4.56398 14.8733 4.41682 14.8041 4.35785C14.7425 4.30481 14.6421 4.31979 14.5676 4.38556C14.4194 4.51654 14.3744 4.70237 14.3935 4.84106M8.49083 9.37978C7.62731 9.38544 6.86657 8.85216 6.77927 7.92835C6.73075 7.41643 6.87545 6.96021 7.16514 6.58434C7.42219 6.24942 7.85715 5.97118 8.22532 5.90321C8.34512 5.88128 8.5061 5.89472 8.57264 5.97449C8.67703 6.09599 8.64703 6.22945 8.54265 6.28271C8.26176 6.42612 7.92377 6.67163 7.75653 7.00688C7.62089 7.28051 7.59349 7.61027 7.80067 7.92443C8.14744 8.44798 9.11407 8.46238 10.0128 7.62741C10.2354 7.42306 10.4346 7.22672 10.6371 6.99414C11.0329 6.54153 11.1646 6.3766 11.6908 5.64672C11.6964 5.63824 11.6993 5.62719 11.6964 5.62182C11.6922 5.61192 11.6851 5.6105 11.6694 5.60908C11.3182 5.61898 11.0119 5.72352 10.7142 5.94598C10.6285 6.0085 10.5051 5.99973 10.4511 5.91741C10.391 5.82434 10.4342 5.70318 10.533 5.63477C11.0119 5.30173 11.535 5.24133 12.0692 5.15117C12.0688 5.15117 12.1063 5.15258 12.1368 5.11241C12.3561 4.83097 12.5217 4.5771 12.7555 4.29248C12.991 4.0037 13.2953 3.73852 13.5277 3.53933C13.8522 3.26032 14.0603 3.16643 14.2718 3.05135C14.3275 3.02221 14.2647 2.98742 14.2478 2.98742C13.067 2.7655 11.8397 2.47834 10.6671 2.91245C9.85494 3.21551 9.49904 3.85953 9.67023 4.28987C9.79201 4.59513 10.1935 4.64475 10.5693 4.46082C10.8815 4.30787 11.1704 4.06135 11.3752 3.74401C11.4898 3.56778 11.7312 3.69493 11.6008 4.00095C11.2576 4.80747 10.6021 5.44722 9.80354 5.47424C9.12396 5.4963 8.68549 4.99635 8.68692 4.37956C8.68975 3.16303 10.044 2.36167 11.4673 2.24187C13.1814 2.10021 14.8049 2.55679 16.5068 2.76323C17.8107 2.92113 19.0609 2.92442 20.3715 2.62333C20.5265 2.58967 20.6352 2.68853 20.6251 2.84503C20.6124 3.07123 20.4371 3.28909 20.0054 3.52452C19.5145 3.79377 19.0009 3.87547 18.4645 3.87985C17.1675 3.89117 15.9593 3.38507 14.709 3.1134C14.7104 3.16814 14.7249 3.23333 14.6791 3.26789C13.9865 3.7787 13.3605 4.29744 12.9413 5.02602C12.9271 5.04285 12.9342 5.05884 12.9592 5.05714C13.3232 5.03776 13.6506 5.02842 13.9904 5.00126C14.0498 4.9956 14.0521 4.98146 14.0468 4.93818C14.0167 4.68705 14.0901 4.40068 14.311 4.20369C14.5371 4.00098 14.8202 3.97793 15.0079 4.12392C15.2212 4.29017 15.2023 4.58916 15.0857 4.81339C14.9669 5.0409 14.7706 5.16258 14.5823 5.22166C14.5823 5.22166 14.5427 5.23015 14.5487 5.26608C14.5557 5.3235 14.8126 5.46569 14.8346 5.50357C14.8558 5.53963 14.8445 5.59551 14.8059 5.63837C14.7787 5.66949 14.7362 5.69862 14.6817 5.69763C14.6377 5.69676 14.611 5.68151 14.5547 5.6511C14.4396 5.58873 14.2957 5.48617 14.1997 5.36527C14.167 5.32439 14.1503 5.32356 14.0687 5.32808C13.701 5.3493 13.1276 5.40474 12.7391 5.45326C12.6449 5.46457 12.631 5.48253 12.6116 5.5152C11.9922 6.53662 11.3308 7.6381 10.6047 8.37556C9.82584 9.16627 9.17843 9.37446 8.49115 9.37984" fill="white"/>
<path d="M15.9995 1.15668C7.92493 1.15668 1.37982 3.38796 1.37982 6.11831C1.37982 8.84886 7.92493 11.0803 15.9995 11.0803C24.074 11.0803 30.6187 8.84886 30.6187 6.11831C30.6187 3.38796 24.074 1.15668 15.9995 1.15668ZM15.9995 11.53C7.63098 11.53 0.847046 9.10712 0.847046 6.11831C0.847046 3.12904 7.63098 0.706604 15.9995 0.706604C24.3673 0.706604 31.1509 3.12904 31.1509 6.11831C31.1509 9.10712 24.3673 11.53 15.9995 11.53Z" fill="white"/>
</g>
<defs>
<clipPath id="clip0_0_24701">
<rect width="32" height="12.2331" fill="white"/>
</clipPath>
</defs>
</svg>
