<svg width="32" height="22" viewBox="0 0 32 22" fill="none" xmlns="http://www.w3.org/2000/svg">
<g clip-path="url(#clip0_0_1240)">
<path d="M23.0287 9.9308C23.0287 9.9308 21.71 10.3119 19.1591 11.8794C16.8723 13.287 15.9756 14.2328 15.9756 14.2328L8.92056 9.35707C8.92056 9.35707 11.8886 7.17444 14.3686 8.84614L17.6953 11.1282L18.1011 10.8613L8.92199 4.43046C8.92199 4.43046 10.2412 4.04892 12.7906 2.48236C15.0788 1.07421 15.9756 0.12799 15.9756 0.12799L23.0301 5.00371C23.0301 5.00371 20.0625 7.18634 17.5821 5.51464L14.2554 3.2321L13.8496 3.49851L23.0287 9.9308Z" fill="#E20A17"/>
<path d="M17.5648 16.5821H12.1953V17.7762H14.7889L12.1039 20.2828V21.2832H17.5548V20.0844H14.8427L17.5648 17.584V16.5821Z" fill="#003399"/>
<path d="M9.03379 21.4035C11.1812 21.4035 11.7312 20.855 11.7312 19.6457V16.582H10.03V19.4625C10.03 19.9464 9.61608 20.2346 9.03379 20.2346C8.42819 20.2346 8.03857 19.9449 8.03857 19.4549V16.582H6.33737V19.6457C6.33737 20.855 6.88731 21.4035 9.03379 21.4035Z" fill="#003399"/>
<path d="M20.6821 21.4035C22.8295 21.4035 23.3794 20.855 23.3794 19.6457V16.582H21.6778V19.4625C21.6778 19.9464 21.2634 20.2346 20.6821 20.2346C20.0765 20.2346 19.6854 19.9449 19.6854 19.4549V16.582H17.9847V19.6457C17.9847 20.855 18.5346 21.4035 20.6821 21.4035Z" fill="#003399"/>
<path d="M31.872 16.5821H30.098V21.2832H31.872V16.5821Z" fill="#003399"/>
<path d="M29.8278 16.5821H27.4939L25.6052 18.2043V16.5821H23.8308V21.2832H25.6052V19.6158L27.3592 21.2832H29.7426L27.1485 18.8713L29.8278 16.5821Z" fill="#003399"/>
<path d="M2.14413 17.8811C2.14413 17.5176 2.68265 17.5057 2.86438 17.5057C3.04658 17.5057 3.45714 17.5785 3.73639 18.0366H5.74252C5.74252 17.1508 4.90287 16.4463 2.87057 16.4463C0.613246 16.4463 0.22886 17.4368 0.22886 18.0057C0.22886 19.0547 1.0414 19.362 2.80825 19.5504C2.95953 19.5661 3.87863 19.5228 3.87863 19.9648C3.87863 20.2921 3.36199 20.3139 3.1717 20.3139C2.98284 20.3139 2.62937 20.283 2.33728 19.7631H0.128006C0.128006 20.7954 0.823993 21.3919 3.16837 21.3919C5.32769 21.3919 5.90094 20.5104 5.90094 19.8401C5.90094 19.1893 5.45423 18.5271 3.61317 18.2916C2.84535 18.1922 2.14413 18.1503 2.14413 17.8811Z" fill="#003399"/>
</g>
<defs>
<clipPath id="clip0_0_1240">
<rect width="32" height="21.5315" fill="white"/>
</clipPath>
</defs>
</svg>
