<svg width="32" height="21" viewBox="0 0 32 21" fill="none" xmlns="http://www.w3.org/2000/svg">
<g clip-path="url(#clip0_0_1280)">
<path d="M16 0.143738C7.24583 0.143738 0.147919 4.7354 0.147919 10.3979C0.147919 16.0625 7.24583 20.6562 16 20.6562C24.7542 20.6562 31.8521 16.0646 31.8521 10.3979C31.8521 4.73124 24.7542 0.143738 16 0.143738ZM16 16.2542C14.6979 16.2542 13.6354 13.6896 13.5688 10.4625C14.3521 10.5312 15.1667 10.5687 16 10.5687C16.8333 10.5687 17.6479 10.5312 18.4313 10.4625C18.3646 13.6875 17.3021 16.2542 16 16.2542ZM13.7292 7.89999C14.0833 5.61874 14.9667 3.99999 16 3.99999C17.0333 3.99999 17.9167 5.61874 18.2708 7.89999C17.5438 7.96457 16.7854 7.99999 16 7.99999C15.2146 7.99999 14.4563 7.96457 13.7292 7.89999ZM16 1.62707C14.3 1.62707 12.85 4.1729 12.3146 7.72707C9.09167 7.22499 6.84167 6.07915 6.84167 4.7479C6.84167 2.95207 10.9417 1.49582 16 1.49582C21.0583 1.49582 25.1583 2.95207 25.1583 4.7479C25.1583 6.07915 22.9083 7.22499 19.6854 7.72707C19.15 4.1729 17.7 1.62707 16 1.62707ZM2.42083 10.0146C2.42083 8.27707 3.08959 6.64582 4.25417 5.24582C4.24167 5.34374 4.23334 5.44374 4.23334 5.54374C4.23334 7.73332 7.51667 9.59999 12.0979 10.2875C12.0938 10.4458 12.0938 10.6062 12.0938 10.7667C12.0938 14.8479 13.2375 18.3042 14.8188 19.4771C7.87083 19.0583 2.42083 14.9812 2.42083 10.0146ZM17.1813 19.4771C18.7625 18.3042 19.9062 14.8479 19.9062 10.7667C19.9062 10.6042 19.9042 10.4458 19.9021 10.2875C24.4813 9.59999 27.7667 7.7354 27.7667 5.54374C27.7667 5.44374 27.7583 5.34374 27.7458 5.24582C28.9104 6.64999 29.5792 8.27707 29.5792 10.0146C29.5792 14.9812 24.1292 19.0583 17.1813 19.4771Z" fill="#282830"/>
</g>
<defs>
<clipPath id="clip0_0_1280">
<rect width="32" height="20.8" fill="white"/>
</clipPath>
</defs>
</svg>
