<svg width="32" height="32" viewBox="0 0 32 32" fill="none" xmlns="http://www.w3.org/2000/svg">
<g clip-path="url(#clip0_0_24746)">
<path d="M16.019 30.434C8.09119 30.434 1.59609 23.9071 1.59609 15.9793C1.59609 14.1963 1.91448 12.5088 2.51941 10.9169L10.9567 27.8869C11.0522 28.1098 11.2114 28.3008 11.4661 28.3008C11.7208 28.3008 11.88 28.1098 11.9755 27.8869L15.8598 19.195C15.8917 19.0995 15.9553 19.0039 16.0509 19.0039C16.1464 19.0039 16.1782 19.0995 16.2419 19.195L20.1262 27.8869C20.2217 28.1098 20.3809 28.3008 20.6356 28.3008C20.8904 28.3008 21.0495 28.1098 21.1451 27.8869L29.5823 10.9169C30.1873 12.5088 30.5056 14.1963 30.5056 15.9793C30.442 23.9071 23.9469 30.434 16.019 30.434ZM16.019 12.6999C15.9235 12.6999 15.8917 12.6044 15.828 12.5088L11.3069 2.32045C12.7715 1.7792 14.3634 1.49265 16.019 1.49265C17.6746 1.49265 19.2666 1.7792 20.7312 2.32045L16.2101 12.5088C16.1464 12.6362 16.1145 12.6999 16.019 12.6999ZM11.4024 23.1748C11.3069 23.1748 11.2751 23.0793 11.2114 22.9838L3.88848 8.21062C5.19386 6.20478 6.94499 4.51733 9.07819 3.33929L14.3634 15.0878C14.4271 15.2788 14.5863 15.3425 14.7455 15.3425H17.2926C17.4836 15.3425 17.611 15.3106 17.7065 15.0878L22.9917 3.33929C25.0931 4.51733 26.876 6.20478 28.1814 8.21062L20.7948 22.9838C20.763 23.0793 20.6993 23.1748 20.6038 23.1748C20.5083 23.1748 20.4764 23.0793 20.4128 22.9838L17.6428 16.6797C17.5473 16.4568 17.4199 16.425 17.2289 16.425H14.6818C14.4908 16.425 14.3634 16.4568 14.2679 16.6797L11.5934 22.9838C11.5616 23.0793 11.4979 23.1748 11.4024 23.1748ZM16.019 31.8986C24.8384 31.8986 31.9384 24.7986 31.9384 15.9793C31.9384 7.15994 24.8384 0.059906 16.019 0.059906C7.1997 0.059906 0.0996704 7.15994 0.0996704 15.9793C0.0996704 24.7986 7.1997 31.8986 16.019 31.8986Z" fill="#001E50"/>
</g>
<defs>
<clipPath id="clip0_0_24746">
<rect width="32" height="32" fill="white"/>
</clipPath>
</defs>
</svg>
